<?xml version="1.0" encoding="UTF-8" standalone="no"?>
<svg
   xmlns:dc="http://purl.org/dc/elements/1.1/"
   xmlns:cc="http://creativecommons.org/ns#"
   xmlns:rdf="http://www.w3.org/1999/02/22-rdf-syntax-ns#"
   xmlns:svg="http://www.w3.org/2000/svg"
   xmlns="http://www.w3.org/2000/svg"
   xmlns:sodipodi="http://sodipodi.sourceforge.net/DTD/sodipodi-0.dtd"
   xmlns:inkscape="http://www.inkscape.org/namespaces/inkscape"
   width="425.125mm"
   height="234.95442mm"
   viewBox="0 0 425.125 234.95442"
   version="1.1"
   id="svg912"
   sodipodi:docname="APS_Box110x150x100.svg"
   inkscape:version="1.0.1 (3bc2e813f5, 2020-09-07)"
   inkscape:export-filename="E:\Fablab yo\APSBox110x150x100asemoitu.png"
   inkscape:export-xdpi="96"
   inkscape:export-ydpi="96">
  <defs
     id="defs906">
    <filter
       inkscape:collect="always"
       style="color-interpolation-filters:sRGB"
       id="filter1837"
       x="-1.0833794e-05"
       width="1.0000217"
       y="-2.0893747e-05"
       height="1.0000418">
      <feGaussianBlur
         inkscape:collect="always"
         stdDeviation="9.7504152e-05"
         id="feGaussianBlur1839" />
    </filter>
  </defs>
  <sodipodi:namedview
     id="base"
     pagecolor="#ffffff"
     bordercolor="#666666"
     borderopacity="1.0"
     inkscape:pageopacity="0.0"
     inkscape:pageshadow="2"
     inkscape:zoom="0.72776573"
     inkscape:cx="805.79653"
     inkscape:cy="487.27257"
     inkscape:document-units="mm"
     inkscape:current-layer="layer1"
     inkscape:document-rotation="0"
     showgrid="false"
     inkscape:window-width="1600"
     inkscape:window-height="837"
     inkscape:window-x="-8"
     inkscape:window-y="-8"
     inkscape:window-maximized="1" />
  <metadata
     id="metadata909">
    <rdf:RDF>
      <cc:Work
         rdf:about="">
        <dc:format>image/svg+xml</dc:format>
        <dc:type
           rdf:resource="http://purl.org/dc/dcmitype/StillImage" />
        <dc:title></dc:title>
      </cc:Work>
    </rdf:RDF>
  </metadata>
  <g
     inkscape:label="Layer 1"
     inkscape:groupmode="layer"
     id="layer1"
     transform="translate(-4.10675,-3.70668)">
    <text
       xml:space="preserve"
       style="font-style:normal;font-variant:normal;font-weight:bold;font-stretch:normal;font-size:10.5833px;line-height:1.25;font-family:sans-serif;-inkscape-font-specification:'sans-serif Bold';fill:#0079cf;fill-opacity:1;stroke:none;stroke-width:0.264583"
       x="72.63932"
       y="-67.456627"
       id="text938"><tspan
         sodipodi:role="line"
         id="tspan936"
         x="72.63932"
         y="-67.456627"
         style="font-style:normal;font-variant:normal;font-weight:bold;font-stretch:normal;font-family:sans-serif;-inkscape-font-specification:'sans-serif Bold';fill:#0079cf;fill-opacity:1;stroke-width:0.264583">Box 110 x 150 x 100  inner dimensions</tspan><tspan
         sodipodi:role="line"
         x="72.63932"
         y="-54.227501"
         style="font-style:normal;font-variant:normal;font-weight:bold;font-stretch:normal;font-family:sans-serif;-inkscape-font-specification:'sans-serif Bold';fill:#0079cf;fill-opacity:1;stroke-width:0.264583"
         id="tspan1098">material 3mm</tspan></text>
    <text
       xml:space="preserve"
       style="font-style:normal;font-weight:normal;font-size:10.5833px;line-height:1.25;font-family:sans-serif;fill:#0079cf;fill-opacity:1;stroke:none;stroke-width:0.2;stroke-miterlimit:4;stroke-dasharray:none"
       x="104.81173"
       y="-9.3249168"
       id="text938-5"><tspan
         sodipodi:role="line"
         x="104.81173"
         y="-9.3249168"
         style="fill:#0079cf;fill-opacity:1;stroke-width:0.2;stroke-miterlimit:4;stroke-dasharray:none"
         id="tspan1771">Holes for servo </tspan></text>
    <text
       xml:space="preserve"
       style="font-style:normal;font-weight:normal;font-size:10.5833px;line-height:1.25;font-family:sans-serif;fill:#0079cf;fill-opacity:1;stroke:none;stroke-width:0.2;stroke-miterlimit:4;stroke-dasharray:none"
       x="410.36597"
       y="344.68564"
       id="text938-5-8"><tspan
         sodipodi:role="line"
         id="tspan936-3-2"
         x="410.36597"
         y="344.68564"
         style="fill:#0079cf;fill-opacity:1;stroke-width:0.2;stroke-miterlimit:4;stroke-dasharray:none">Hole for sensor </tspan><tspan
         sodipodi:role="line"
         x="410.36597"
         y="357.91476"
         style="fill:#0079cf;fill-opacity:1;stroke-width:0.2;stroke-miterlimit:4;stroke-dasharray:none"
         id="tspan1775">contact wires o8mm</tspan></text>
    <text
       xml:space="preserve"
       style="font-style:normal;font-weight:normal;font-size:10.5833px;line-height:1.25;font-family:sans-serif;fill:#0079cf;fill-opacity:1;stroke:none;stroke-width:0.2;stroke-miterlimit:4;stroke-dasharray:none"
       x="201.30643"
       y="-15.901175"
       id="text938-5-6"><tspan
         sodipodi:role="line"
         id="tspan936-3-3"
         x="201.30643"
         y="-15.901175"
         style="fill:#0079cf;fill-opacity:1;stroke-width:0.2;stroke-miterlimit:4;stroke-dasharray:none">Hole for Arduino Uno</tspan><tspan
         sodipodi:role="line"
         x="201.30643"
         y="-2.67205"
         style="fill:#0079cf;fill-opacity:1;stroke-width:0.2;stroke-miterlimit:4;stroke-dasharray:none"
         id="tspan1763">14x14mm </tspan><tspan
         sodipodi:role="line"
         x="201.30643"
         y="10.557075"
         style="fill:#0079cf;fill-opacity:1;stroke-width:0.2;stroke-miterlimit:4;stroke-dasharray:none"
         id="tspan1761" /></text>
    <text
       xml:space="preserve"
       style="font-style:normal;font-weight:normal;font-size:10.5833px;line-height:1.25;font-family:sans-serif;fill:#0079cf;fill-opacity:1;stroke:none;stroke-width:0.2;stroke-miterlimit:4;stroke-dasharray:none"
       x="268.96384"
       y="345.90125"
       id="text938-5-8-6"><tspan
         sodipodi:role="line"
         id="tspan936-3-2-4"
         x="268.96384"
         y="345.90125"
         style="fill:#0079cf;fill-opacity:1;stroke-width:0.2;stroke-miterlimit:4;stroke-dasharray:none">Hole for on/off switch </tspan><tspan
         sodipodi:role="line"
         x="268.96384"
         y="359.13037"
         style="fill:#0079cf;fill-opacity:1;stroke-width:0.2;stroke-miterlimit:4;stroke-dasharray:none"
         id="tspan1773">20x20mm</tspan></text>
    <text
       xml:space="preserve"
       style="font-style:normal;font-weight:normal;font-size:10.5833px;line-height:1.25;font-family:sans-serif;fill:#0079cf;fill-opacity:1;stroke:none;stroke-width:0.1;stroke-miterlimit:4;stroke-dasharray:none"
       x="-82.120667"
       y="185.51108"
       id="text938-5-8-6-1"><tspan
         sodipodi:role="line"
         id="tspan936-3-2-4-2"
         x="-82.120667"
         y="185.51108"
         style="fill:#0079cf;fill-opacity:1;stroke-width:0.1;stroke-miterlimit:4;stroke-dasharray:none">Holes for leds </tspan><tspan
         sodipodi:role="line"
         x="-82.120667"
         y="198.7402"
         style="fill:#0079cf;fill-opacity:1;stroke-width:0.1;stroke-miterlimit:4;stroke-dasharray:none"
         id="tspan1779">o 6mm</tspan></text>
    <text
       xml:space="preserve"
       style="font-style:normal;font-weight:normal;font-size:10.5833px;line-height:1.25;font-family:sans-serif;fill:#0079cf;fill-opacity:1;stroke:none;stroke-width:0.1;stroke-miterlimit:4;stroke-dasharray:none"
       x="-85.912621"
       y="134.5406"
       id="text938-5-8-6-0"><tspan
         sodipodi:role="line"
         id="tspan936-3-2-4-27"
         x="-85.912621"
         y="134.5406"
         style="fill:#0079cf;fill-opacity:1;stroke-width:0.1;stroke-miterlimit:4;stroke-dasharray:none">Hole for </tspan><tspan
         sodipodi:role="line"
         x="-85.912621"
         y="147.76973"
         style="fill:#0079cf;fill-opacity:1;stroke-width:0.1;stroke-miterlimit:4;stroke-dasharray:none"
         id="tspan1637">potentiometer</tspan><tspan
         sodipodi:role="line"
         x="-85.912621"
         y="160.99886"
         style="fill:#0079cf;fill-opacity:1;stroke-width:0.1;stroke-miterlimit:4;stroke-dasharray:none"
         id="tspan1635">o 8mm </tspan></text>
    <text
       xml:space="preserve"
       style="font-style:normal;font-weight:normal;font-size:10.5833px;line-height:1.25;font-family:sans-serif;fill:#0079cf;fill-opacity:1;stroke:none;stroke-width:0.2;stroke-miterlimit:4;stroke-dasharray:none"
       x="133.39154"
       y="347.18616"
       id="text938-5-2"><tspan
         sodipodi:role="line"
         id="tspan936-3-20"
         x="133.39154"
         y="347.18616"
         style="fill:#0079cf;fill-opacity:1;stroke-width:0.2;stroke-miterlimit:4;stroke-dasharray:none">Holes for servo</tspan><tspan
         sodipodi:role="line"
         x="133.39154"
         y="360.41528"
         style="fill:#0079cf;fill-opacity:1;stroke-width:0.2;stroke-miterlimit:4;stroke-dasharray:none"
         id="tspan1777" /></text>
    <g
       id="panel2920"
       style="stroke:#000000;stroke-width:0.02;stroke-miterlimit:4;stroke-dasharray:none;stroke-opacity:1"
       transform="translate(-103.64325,-103.87332)"
       inkscape:export-xdpi="96"
       inkscape:export-ydpi="96">
      <path
         style="fill:none;stroke:#000000;stroke-width:0.02;stroke-miterlimit:4;stroke-dasharray:none;stroke-opacity:1"
         d="m 108,108 h 10.835 v 3 h 9.83 v -3 h 10.92 v 3 h 9.83 v -3 h 10.92 v 3 h 9.83 v -3 h 10.92 v 3 h 9.83 v -3 h 10.92 v 3 h 9.83 v -3 h 10.92 v 3 h 9.83 v -3 h 10.92 v 3 h 9.83 v -3 H 264"
         id="path1693" />
      <path
         style="fill:none;stroke:#000000;stroke-width:0.02;stroke-miterlimit:4;stroke-dasharray:none;stroke-opacity:1"
         d="m 264,108 v 11.085 h -3 v 9.83 h 3 v 11.17 h -3 v 9.83 h 3 v 11.17 h -3 v 9.83 h 3 v 11.17 h -3 v 9.83 h 3 v 11.17 h -3 v 9.83 h 3 V 224"
         id="path1695" />
      <path
         style="fill:none;stroke:#000000;stroke-width:0.02;stroke-miterlimit:4;stroke-dasharray:none;stroke-opacity:1"
         d="m 264,224 h -10.835 v -3 h -9.83 v 3 h -10.92 v -3 h -9.83 v 3 h -10.92 v -3 h -9.83 v 3 h -10.92 v -3 h -9.83 v 3 h -10.92 v -3 h -9.83 v 3 h -10.92 v -3 h -9.83 v 3 h -10.92 v -3 h -9.83 v 3 H 108"
         id="path1697" />
      <path
         style="fill:none;stroke:#000000;stroke-width:0.02;stroke-miterlimit:4;stroke-dasharray:none;stroke-opacity:1"
         d="m 108,224 v -11.085 h 3 v -9.83 h -3 v -11.17 h 3 v -9.83 h -3 v -11.17 h 3 v -9.83 h -3 v -11.17 h 3 v -9.83 h -3 v -11.17 h 3 v -9.83 h -3 V 108"
         id="path1699" />
    </g>
    <rect
       style="opacity:1;fill:none;fill-opacity:1;stroke:#000000;stroke-width:0.02;stroke-miterlimit:4;stroke-dasharray:none;stroke-opacity:1"
       id="rect1076-1"
       width="18.75"
       height="18.75"
       x="219.12759"
       y="17.08168"
       rx="1.9508027"
       ry="0.94493955" />
    <g
       id="panel6108"
       style="stroke:#000000;stroke-width:0.02;stroke-miterlimit:4;stroke-dasharray:none;stroke-opacity:1"
       transform="translate(-101.9974,-104.04332)">
      <path
         style="fill:none;stroke:#000000;stroke-width:0.02;stroke-miterlimit:4;stroke-dasharray:none;stroke-opacity:1"
         d="m 268,111 h 10.115 v -3 h 10.17 v 3 h 13.03 v -3 h 10.17 v 3 h 13.03 v -3 h 10.17 v 3 h 13.03 v -3 h 10.17 v 3 H 368"
         id="path1702" />
      <path
         style="fill:none;stroke:#000000;stroke-width:0.02;stroke-miterlimit:4;stroke-dasharray:none;stroke-opacity:1"
         d="m 368,111 v 7.915 h 3 v 10.17 h -3 v 10.83 h 3 v 10.17 h -3 v 10.83 h 3 v 10.17 h -3 v 10.83 h 3 v 10.17 h -3 v 10.83 h 3 v 10.17 h -3 V 221"
         id="path1704" />
      <path
         style="fill:none;stroke:#000000;stroke-width:0.02;stroke-miterlimit:4;stroke-dasharray:none;stroke-opacity:1"
         d="m 368,221 h -10.115 v 3 h -10.17 v -3 h -13.03 v 3 h -10.17 v -3 h -13.03 v 3 h -10.17 v -3 h -13.03 v 3 h -10.17 v -3 H 268"
         id="path1706" />
      <path
         style="fill:none;stroke:#000000;stroke-width:0.02;stroke-miterlimit:4;stroke-dasharray:none;stroke-opacity:1"
         d="m 268,221 v -7.915 h -3 v -10.17 h 3 v -10.83 h -3 v -10.17 h 3 v -10.83 h -3 v -10.17 h 3 v -10.83 h -3 v -10.17 h 3 v -10.83 h -3 v -10.17 h 3 V 111"
         id="path1708" />
    </g>
    <ellipse
       style="opacity:1;fill:none;fill-opacity:1;stroke:#000000;stroke-width:0.02;stroke-miterlimit:4;stroke-dasharray:none;stroke-opacity:1"
       id="circle1233"
       cx="301.19275"
       cy="100.45668"
       rx="3.6363635"
       ry="3.6363637" />
    <g
       id="panel2325"
       style="stroke:#000000;stroke-width:0.02;stroke-miterlimit:4;stroke-dasharray:none;stroke-opacity:1"
       transform="translate(-99.351556,-104.04332)">
      <path
         style="fill:none;stroke:#000000;stroke-width:0.02;stroke-miterlimit:4;stroke-dasharray:none;stroke-opacity:1"
         d="m 372,108 h 10.835 v 3 h 9.83 v -3 h 10.92 v 3 h 9.83 v -3 h 10.92 v 3 h 9.83 v -3 h 10.92 v 3 h 9.83 v -3 h 10.92 v 3 h 9.83 v -3 h 10.92 v 3 h 9.83 v -3 h 10.92 v 3 h 9.83 v -3 H 528"
         id="path1711" />
      <path
         style="fill:none;stroke:#000000;stroke-width:0.02;stroke-miterlimit:4;stroke-dasharray:none;stroke-opacity:1"
         d="m 528,108 v 11.085 h -3 v 9.83 h 3 v 11.17 h -3 v 9.83 h 3 v 11.17 h -3 v 9.83 h 3 v 11.17 h -3 v 9.83 h 3 v 11.17 h -3 v 9.83 h 3 V 224"
         id="path1713" />
      <path
         style="fill:none;stroke:#000000;stroke-width:0.02;stroke-miterlimit:4;stroke-dasharray:none;stroke-opacity:1"
         d="m 528,224 h -10.835 v -3 h -9.83 v 3 h -10.92 v -3 h -9.83 v 3 h -10.92 v -3 h -9.83 v 3 h -10.92 v -3 h -9.83 v 3 h -10.92 v -3 h -9.83 v 3 h -10.92 v -3 h -9.83 v 3 h -10.92 v -3 h -9.83 v 3 H 372"
         id="path1715" />
      <path
         style="fill:none;stroke:#000000;stroke-width:0.02;stroke-miterlimit:4;stroke-dasharray:none;stroke-opacity:1"
         d="m 372,224 v -11.085 h 3 v -9.83 h -3 v -11.17 h 3 v -9.83 h -3 v -11.17 h 3 v -9.83 h -3 v -11.17 h 3 v -9.83 h -3 v -11.17 h 3 v -9.83 h -3 V 108"
         id="path1717" />
    </g>
    <ellipse
       style="opacity:1;fill:none;fill-opacity:1;stroke:#000000;stroke-width:0.02;stroke-miterlimit:4;stroke-dasharray:none;stroke-opacity:1"
       id="circle1257"
       cx="341.48175"
       cy="158.9111"
       rx="3.6363635"
       ry="3.6363637" />
    <circle
       style="opacity:1;fill:none;fill-opacity:1;stroke:#000000;stroke-width:0.02;stroke-miterlimit:4;stroke-dasharray:none;stroke-opacity:1"
       id="path934-6"
       cx="350.48175"
       cy="197.9111"
       r="2.7272723" />
    <circle
       style="opacity:1;fill:none;fill-opacity:1;stroke:#000000;stroke-width:0.02;stroke-miterlimit:4;stroke-dasharray:none;stroke-opacity:1"
       id="path934-6-9"
       cx="360.48175"
       cy="197.9111"
       r="2.727273" />
    <circle
       style="opacity:1;fill:none;fill-opacity:1;stroke:#000000;stroke-width:0.02;stroke-miterlimit:4;stroke-dasharray:none;stroke-opacity:1"
       id="path934-6-93"
       cx="340.48175"
       cy="197.9111"
       r="2.727273" />
    <g
       id="panel4511"
       style="stroke:#000000;stroke-width:0.02;stroke-miterlimit:4;stroke-dasharray:none;stroke-opacity:1"
       transform="translate(321.98175,14.411108)">
      <path
         style="fill:none;stroke:#000000;stroke-width:0.02;stroke-miterlimit:4;stroke-dasharray:none;stroke-opacity:1"
         d="m 4,111 h 10.115 v -3 h 10.17 v 3 h 13.03 v -3 h 10.17 v 3 h 13.03 v -3 h 10.17 v 3 h 13.03 v -3 h 10.17 v 3 H 104"
         id="path1684" />
      <path
         style="fill:none;stroke:#000000;stroke-width:0.02;stroke-miterlimit:4;stroke-dasharray:none;stroke-opacity:1"
         d="m 104,111 v 7.915 h 3 v 10.17 h -3 v 10.83 h 3 v 10.17 h -3 v 10.83 h 3 v 10.17 h -3 v 10.83 h 3 v 10.17 h -3 v 10.83 h 3 v 10.17 h -3 V 221"
         id="path1686" />
      <path
         style="fill:none;stroke:#000000;stroke-width:0.02;stroke-miterlimit:4;stroke-dasharray:none;stroke-opacity:1"
         d="M 104,221 H 93.885 v 3 h -10.17 v -3 h -13.03 v 3 h -10.17 v -3 h -13.03 v 3 h -10.17 v -3 h -13.03 v 3 h -10.17 v -3 H 4"
         id="path1688" />
      <path
         style="fill:none;stroke:#000000;stroke-width:0.02;stroke-miterlimit:4;stroke-dasharray:none;stroke-opacity:1"
         d="m 4,221 v -7.915 H 1 v -10.17 h 3 v -10.83 H 1 v -10.17 h 3 v -10.83 H 1 v -10.17 h 3 v -10.83 H 1 v -10.17 h 3 v -10.83 H 1 v -10.17 H 4 V 111"
         id="path1690" />
    </g>
    <text
       xml:space="preserve"
       style="font-style:normal;font-variant:normal;font-weight:bold;font-stretch:normal;font-size:7.05556px;line-height:1.25;font-family:sans-serif;-inkscape-font-specification:'sans-serif, Bold';font-variant-ligatures:normal;font-variant-caps:normal;font-variant-numeric:normal;font-variant-east-asian:normal;fill:#000000;fill-opacity:1;stroke:#000000;stroke-width:0.02;stroke-miterlimit:4;stroke-dasharray:none;stroke-opacity:1"
       x="-227.22328"
       y="402.81271"
       id="text1767"
       transform="rotate(-89.853131)"><tspan
         sodipodi:role="line"
         id="tspan1765"
         x="-227.22328"
         y="402.81271"
         style="font-style:normal;font-variant:normal;font-weight:bold;font-stretch:normal;font-size:7.05556px;font-family:sans-serif;-inkscape-font-specification:'sans-serif, Bold';font-variant-ligatures:normal;font-variant-caps:normal;font-variant-numeric:normal;font-variant-east-asian:normal;stroke:#000000;stroke-width:0.02;stroke-miterlimit:4;stroke-dasharray:none;stroke-opacity:1">Adjustable Phone Stand</tspan></text>
    <rect
       style="opacity:1;fill:none;fill-opacity:1;stroke:#000000;stroke-width:0.02;stroke-miterlimit:4;stroke-dasharray:none;stroke-opacity:1"
       id="rect1076"
       width="13.125"
       height="13.125"
       x="247.2726"
       y="209.31531"
       rx="1.3655618"
       ry="0.66145772" />
    <g
       id="panel845"
       style="stroke:#000000;stroke-width:0.02;stroke-miterlimit:4;stroke-dasharray:none;stroke-opacity:1"
       transform="translate(56.865097,121.24781)">
      <path
         style="fill:none;stroke:#000000;stroke-width:0.02;stroke-miterlimit:4;stroke-dasharray:none;stroke-opacity:1"
         d="m 108,4 h 10.665 V 1 h 10.17 v 3 h 10.58 V 1 h 10.17 v 3 h 10.58 V 1 h 10.17 v 3 h 10.58 V 1 h 10.17 v 3 h 10.58 V 1 h 10.17 v 3 h 10.58 V 1 h 10.17 v 3 h 10.58 V 1 h 10.17 V 4 H 264"
         id="path1720" />
      <path
         style="fill:none;stroke:#000000;stroke-width:0.02;stroke-miterlimit:4;stroke-dasharray:none;stroke-opacity:1"
         d="m 264,4 v 10.285 h -3 v 9.83 h 3 v 13.37 h -3 v 9.83 h 3 v 13.37 h -3 v 9.83 h 3 v 13.37 h -3 v 9.83 h 3 V 104"
         id="path1722" />
      <path
         style="fill:none;stroke:#000000;stroke-width:0.02;stroke-miterlimit:4;stroke-dasharray:none;stroke-opacity:1"
         d="m 264,104 h -10.665 v 3 h -10.17 v -3 h -10.58 v 3 h -10.17 v -3 h -10.58 v 3 h -10.17 v -3 h -10.58 v 3 h -10.17 v -3 h -10.58 v 3 h -10.17 v -3 h -10.58 v 3 h -10.17 v -3 h -10.58 v 3 h -10.17 v -3 H 108"
         id="path1724" />
      <path
         style="fill:none;stroke:#000000;stroke-width:0.02;stroke-miterlimit:4;stroke-dasharray:none;stroke-opacity:1"
         d="M 108,104 V 93.715 h 3 v -9.83 h -3 v -13.37 h 3 v -9.83 h -3 v -13.37 h 3 v -9.83 h -3 v -13.37 h 3 v -9.83 h -3 V 4"
         id="path1726" />
    </g>
    <rect
       style="opacity:1;fill:none;fill-opacity:1;stroke:#000000;stroke-width:0.02;stroke-miterlimit:4;stroke-dasharray:none;stroke-opacity:1;filter:url(#filter1837)"
       id="rect1895"
       width="21.6"
       height="11.2"
       x="231.98972"
       y="169.64781"
       rx="1.5606422"
       ry="0.75595164" />
    <circle
       style="opacity:1;fill:none;fill-opacity:1;stroke:#000000;stroke-width:0.02;stroke-miterlimit:4;stroke-dasharray:none;stroke-opacity:1"
       id="circle1897"
       cx="255.97916"
       cy="175.4978"
       r="1.0000005" />
    <circle
       style="opacity:1;fill:none;fill-opacity:1;stroke:#000000;stroke-width:0.02;stroke-miterlimit:4;stroke-dasharray:none;stroke-opacity:1"
       id="circle1899"
       cx="229.75104"
       cy="175.4978"
       r="1.0000005" />
    <g
       id="panel8555"
       style="stroke:#000000;stroke-width:0.02;stroke-miterlimit:4;stroke-dasharray:none;stroke-opacity:1"
       transform="translate(-103.47325,-102.22747)">
      <path
         style="fill:none;stroke:#000000;stroke-width:0.02;stroke-miterlimit:4;stroke-dasharray:none;stroke-opacity:1"
         d="m 108,228 h 10.665 v -3 h 10.17 v 3 h 10.58 v -3 h 10.17 v 3 h 10.58 v -3 h 10.17 v 3 h 10.58 v -3 h 10.17 v 3 h 10.58 v -3 h 10.17 v 3 h 10.58 v -3 h 10.17 v 3 h 10.58 v -3 h 10.17 v 3 H 264"
         id="path1675" />
      <path
         style="fill:none;stroke:#000000;stroke-width:0.02;stroke-miterlimit:4;stroke-dasharray:none;stroke-opacity:1"
         d="m 264,228 v 10.285 h -3 v 9.83 h 3 v 13.37 h -3 v 9.83 h 3 v 13.37 h -3 v 9.83 h 3 v 13.37 h -3 v 9.83 h 3 V 328"
         id="path1677" />
      <path
         style="fill:none;stroke:#000000;stroke-width:0.02;stroke-miterlimit:4;stroke-dasharray:none;stroke-opacity:1"
         d="m 264,328 h -10.665 v 3 h -10.17 v -3 h -10.58 v 3 h -10.17 v -3 h -10.58 v 3 h -10.17 v -3 h -10.58 v 3 h -10.17 v -3 h -10.58 v 3 h -10.17 v -3 h -10.58 v 3 h -10.17 v -3 h -10.58 v 3 h -10.17 v -3 H 108"
         id="path1679" />
      <path
         style="fill:none;stroke:#000000;stroke-width:0.02;stroke-miterlimit:4;stroke-dasharray:none;stroke-opacity:1"
         d="m 108,328 v -10.285 h 3 v -9.83 h -3 v -13.37 h 3 v -9.83 h -3 v -13.37 h 3 v -9.83 h -3 v -13.37 h 3 v -9.83 h -3 V 228"
         id="path1681" />
    </g>
    <rect
       style="opacity:1;fill:none;fill-opacity:1;stroke:#000000;stroke-width:0.02;stroke-miterlimit:4;stroke-dasharray:none;stroke-opacity:1;filter:url(#filter1837)"
       id="rect1905"
       width="21.6"
       height="11.2"
       x="71.651367"
       y="170.17253"
       rx="1.5606422"
       ry="0.75595164" />
    <circle
       style="opacity:1;fill:none;fill-opacity:1;stroke:#000000;stroke-width:0.02;stroke-miterlimit:4;stroke-dasharray:none;stroke-opacity:1"
       id="circle1907"
       cx="95.640808"
       cy="176.02252"
       r="1.0000005" />
    <circle
       style="opacity:1;fill:none;fill-opacity:1;stroke:#000000;stroke-width:0.02;stroke-miterlimit:4;stroke-dasharray:none;stroke-opacity:1"
       id="circle1909"
       cx="69.412689"
       cy="176.02252"
       r="1.0000005" />
  </g>
</svg>
